PathFileType	4	(X/Y/Z)	s04c0001.trc
DataRate	CameraRate	NumFrames	NumMarkers	Units	OrigDataRate	OrigDataStartFrame	OrigNumFrames
200	200	4	49	mm	200	250	2000
Frame#	Time	racr			lacr			c7			jug			rlel			rdr			llel			ldr			s2			lic			ric			lasi			rasi			rpsi			lpsi			rgt			lgt			rth1			rth2			rth3			rth4			rlfc			rmfc			rsh1			rsh2			rsh3			rsh4			rlmal			rmmal			rcal			rtoe			rmt5			rmt1			lth1			lth2			lth4			lth3			llfc			lmfc			lsh1			lsh2			lsh3			lsh4			llmal			lmmal			lcal			ltoe			lmt1			lmt5			
		X1	Y1	Z1	X2	Y2	Z2	X3	Y3	Z3	X4	Y4	Z4	X5	Y5	Z5	X6	Y6	Z6	X7	Y7	Z7	X8	Y8	Z8	X9	Y9	Z9	X10	Y10	Z10	X11	Y11	Z11	X12	Y12	Z12	X13	Y13	Z13	X14	Y14	Z14	X15	Y15	Z15	X16	Y16	Z16	X17	Y17	Z17	X18	Y18	Z18	X19	Y19	Z19	X20	Y20	Z20	X21	Y21	Z21	X22	Y22	Z22	X23	Y23	Z23	X24	Y24	Z24	X25	Y25	Z25	X26	Y26	Z26	X27	Y27	Z27	X28	Y28	Z28	X29	Y29	Z29	X30	Y30	Z30	X31	Y31	Z31	X32	Y32	Z32	X33	Y33	Z33	X34	Y34	Z34	X35	Y35	Z35	X36	Y36	Z36	X37	Y37	Z37	X38	Y38	Z38	X39	Y39	Z39	X40	Y40	Z40	X41	Y41	Z41	X42	Y42	Z42	X43	Y43	Z43	X44	Y44	Z44	X45	Y45	Z45	X46	Y46	Z46	X47	Y47	Z47	X48	Y48	Z48	X49	Y49	Z49	
250	1.2500	164.293442	1557.667969	281.942444	191.186584	1555.931396	-82.173080	116.241631	1589.822998	83.830505	247.980270	1525.510376	97.863762	90.398872	1216.763672	374.488770	202.616257	976.766968	487.161591	153.998322	1241.095459	-196.128464	296.738922	986.644775	-280.331512	62.390118	1053.644409	96.944214	236.739166	1110.707397	-50.738930	198.076859	1101.407837	272.605652	284.140717	1055.857666	3.866804	264.985016	1060.357910	231.445557	78.597168	1088.807861	140.591049	80.713120	1084.524536	61.800304	163.790878	1001.104553	276.698700	187.723343	955.697327	-68.702454	178.997604	865.846680	298.629730	193.951492	779.190063	289.071686	167.047775	699.047424	279.387146	229.877945	778.586487	279.332153	153.453110	547.981140	249.502731	161.133087	525.461365	139.322144	105.178864	425.583099	267.996460	121.369080	336.116211	259.677551	88.532021	256.953583	242.941650	157.450058	335.452576	245.610779	89.140808	103.165230	231.603302	138.427612	111.344429	159.371933	48.181114	68.257965	168.115265	314.044861	83.384262	304.774841	232.149887	52.836323	326.677887	279.348419	49.969215	227.717041	190.453537	862.179504	-81.203499	210.517670	777.377258	-78.828430	245.880600	776.136414	-68.762939	184.477142	692.397095	-73.200272	163.919647	551.696655	-54.380085	189.773972	521.989014	50.043972	147.910583	423.520142	-80.868782	170.472870	339.698853	-68.236404	147.226624	253.764038	-67.787262	199.782486	341.286743	-42.121780	146.807526	104.440582	-63.894356	154.792221	100.166237	21.980892	80.131744	77.270554	-14.642623	376.905273	83.023483	-57.745552	312.813141	55.084248	0.010855	302.206238	43.179161	-111.037766	
251	1.2550	164.313736	1557.661621	281.957428	191.220703	1555.932983	-82.169220	116.285690	1589.841553	83.855988	247.988480	1525.500488	97.888588	90.394447	1216.752563	374.498138	202.594238	976.753723	487.168396	154.022202	1241.110962	-196.116562	296.762573	986.668152	-280.342926	62.390087	1053.644409	96.944122	236.757874	1110.713257	-50.729713	198.089096	1101.410889	272.625824	284.148651	1055.854126	3.877816	264.994446	1060.364746	231.454147	78.597252	1088.807861	140.591019	80.713600	1084.529663	61.798149	163.780670	1001.099243	276.707489	187.571198	955.487000	-68.143097	178.989395	865.845764	298.627075	193.960892	779.195801	289.073547	167.029495	699.043884	279.382843	229.892151	778.578308	279.314941	153.447083	547.982910	249.506012	161.137695	525.443237	139.330200	105.166336	425.607422	268.013794	121.365250	336.107849	259.694672	88.519295	256.972778	242.950394	157.459213	335.460388	245.610916	89.147797	103.172897	231.611557	138.423218	111.344528	159.370789	48.182537	68.254539	168.116165	314.048645	83.382774	304.778687	232.175156	52.845676	326.676575	279.335754	49.975311	227.701019	190.505356	862.156982	-81.188667	210.522339	777.396790	-78.842552	245.888397	776.142761	-68.764519	184.475952	692.397827	-73.189781	163.916382	551.697266	-54.379242	189.756912	521.968323	50.032482	147.910553	423.519897	-80.868942	170.472656	339.698486	-68.236633	147.230621	253.761368	-67.788643	199.761536	341.285126	-42.110153	146.794998	104.441910	-63.890427	154.793060	100.163712	21.984333	80.118530	77.278069	-14.630189	376.898743	83.015327	-57.752907	312.796722	55.063850	-0.008820	302.191345	43.171738	-111.042526	
252	1.2600	164.336288	1557.642822	281.990295	191.230988	1555.949829	-82.129417	116.302444	1589.841675	83.911911	248.021011	1525.503174	97.901955	90.388878	1216.750488	374.517700	202.577484	976.732910	487.180573	154.033936	1241.131836	-196.113953	296.779297	986.683838	-280.369568	62.408752	1053.647583	96.936317	236.794632	1110.721313	-50.727985	198.073578	1101.393555	272.622559	284.161713	1055.860107	3.887816	265.005493	1060.349609	231.449036	78.620712	1088.804565	140.590027	80.732292	1084.531250	61.806427	163.802032	1001.106079	276.704773	187.583725	955.490234	-68.142471	179.006287	865.838806	298.621490	193.955521	779.181152	289.080444	167.058258	699.038574	279.375458	229.905487	778.572937	279.328766	153.436539	547.991516	249.505844	161.159485	525.446228	139.332169	105.179955	425.598022	267.997314	121.367699	336.105591	259.685455	88.526840	256.952576	242.949158	157.462753	335.444366	245.608231	89.153778	103.168144	231.608719	138.416946	111.346603	159.361832	48.180927	68.257767	168.114792	314.038300	83.373268	304.782593	232.188568	52.847153	326.682770	279.331604	49.981434	227.719208	190.522888	862.153687	-81.186714	210.549973	777.374695	-78.819725	245.908936	776.127747	-68.741676	184.481140	692.392517	-73.180664	163.932678	551.697815	-54.388134	189.764618	521.978149	50.025330	147.917084	423.518585	-80.861572	170.472458	339.698761	-68.236763	147.225220	253.760605	-67.788757	199.770081	341.293091	-42.110073	146.776855	104.458611	-63.882618	154.803253	100.168709	21.990370	80.126053	77.273788	-14.630476	376.910309	83.013176	-57.745308	312.812866	55.073631	-0.008182	302.186584	43.201645	-111.025879	
253	1.2650	164.363052	1557.639404	281.994080	191.278824	1555.971191	-82.114967	116.339195	1589.848999	83.958359	248.037018	1525.507446	97.926399	90.382774	1216.733154	374.538940	202.564178	976.719116	487.199280	154.053421	1241.151489	-196.113785	296.812958	986.712280	-280.378204	62.414345	1053.649048	96.924545	236.803955	1110.717651	-50.726498	198.076797	1101.402954	272.620697	284.182373	1055.854614	3.897255	264.994690	1060.344482	231.441223	78.620766	1088.804565	140.589996	80.728096	1084.529907	61.790554	163.800491	1001.103516	276.717346	187.615753	955.479797	-68.128174	179.001434	865.842590	298.626190	193.960983	779.193787	289.090668	167.038437	699.052856	279.390717	229.921341	778.591187	279.356293	153.443405	547.983337	249.513321	161.157013	525.451233	139.336075	105.179100	425.583405	267.996338	121.375931	336.100281	259.700012	88.536957	256.959686	242.950134	157.470657	335.458069	245.604523	89.143616	103.170052	231.601410	138.429459	111.342743	159.379974	48.183445	68.261299	168.112732	314.047974	83.386650	304.778137	232.161575	52.837276	326.682678	279.336609	49.968128	227.699249	190.535431	862.152649	-81.184853	210.561111	777.378540	-78.833977	245.916687	776.123962	-68.741661	184.498688	692.403870	-73.200371	163.923843	551.702454	-54.375717	189.771179	521.973022	50.042233	147.909775	423.530365	-80.876816	170.494156	339.702423	-68.239037	147.227524	253.759232	-67.783058	199.774780	341.295502	-42.109993	146.794800	104.442093	-63.890423	154.814545	100.146378	21.994827	80.119087	77.286400	-14.634287	376.903748	83.005074	-57.752647	312.808868	55.070141	-0.016352	302.221313	43.179314	-111.021690	
